# xmcd
#
# Track frame offsets:
# 150
# 19336
# 37222
# 49274
# 61280
# 85235
# 103450
# 115174
#
# Disc length: 1838 seconds
#
#
# Revision: 0
# Processed by: cddbd v1.5.2PL0 Copyright (c) Steve Scherf et al.
# Submitted via: FreeRIP 2.943 
#
DISCID=71072c08
DTITLE=dopethrone - demonsmoke
DYEAR=2009
DGENRE=Slow Rock
TTITLE0=demonsmoke
TTITLE1=wizard's sleeve
TTITLE2=spirit ruiner
TTITLE3=abraxas
TTITLE4=psychic vampire
TTITLE5=blood boiler
TTITLE6=power violence forever
TTITLE7=legalize murder
EXTD=z
EXTT0=
EXTT1=
EXTT2=
EXTT3=
EXTT4=
EXTT5=
EXTT6=
EXTT7=
PLAYORDER=
